<svg xmlns="http://www.w3.org/2000/svg" width="48" height="48" xmlns:v="https://vecta.io/nano"><path d="M1.785-.047l1.606.016 1.605.015L6.238 0c.477 6.727.532 13.418.48 20.16h10.083L17.281 0c8.098 0 8.098 0 10.75 1.512l.867.476c.907.504 1.797 1.028 2.692 1.551q.944.533 1.887 1.059l3.699 2.101 4.539 2.543c5.66 3.094 5.66 3.094 6.285 3.719.047 1.09.055 2.18.055 3.27v1.035q-.001 1.703-.008 3.406.001 1.178-.004 2.355 0 3.107-.012 6.207l-.008 6.332Q48.018 41.784 48 48h-7.2l.157-1.687c-.207-1.637-.539-2.075-1.852-3.122a92 92 0 0 0-5.144-2.78l-1.805-.954a387 387 0 0 0-3.34-1.734c-1.312-.688-2.586-1.442-3.855-2.203L24.481 48h-7.2l-.48-20.16H6.719l.02 3.433q.003 1.665.007 3.329l.012 2.296q.007 1.659.008 3.317.007.503.007 1.023c0 2.293-.21 4.492-.535 6.762H0q-.018-9.281-.023-18.562l-.012-8.618-.012-8.312q.001-1.588-.004-3.176-.005-2.22-.004-4.434l-.004-1.343C-.055.02-.055.02 1.785-.047M24.48 8.16c-.34 2.008-.449 3.762 0 5.762 1.563 1.66 3.43 2.562 5.461 3.566A176 176 0 0 0 36 20.641l1.45.73q1.675.837 3.35 1.668v-6.238c-8.09-4.461-8.09-4.461-16.32-8.64m0 13.442v5.757q2.791 1.605 5.583 3.203.948.547 1.898 1.086l2.738 1.57 1.66.954a94 94 0 0 0 4.442 2.308c.344-2.011.453-3.761 0-5.761-1.586-1.66-3.477-2.563-5.52-3.57q-1.553-.822-3.105-1.649l-1.504-.766a48 48 0 0 1-3.625-2.132c-1.426-1.086-1.426-1.086-2.567-1m0 0" fill="#09090a"/><path d="M24 0c5.21 2.559 10.3 5.258 15.355 8.102l5.16 2.816 1.087.602 1.25.546c1.148.895 1.148.895 1.437 2.399l-.016 1.875v1.035l-.039 3.39-.011 2.352a653 653 0 0 1-.059 6.184l-.047 6.312A2183 2183 0 0 1 48 48h-7.2l-.48-4.32h.961v-6.72H39.84l.48-.96c.11-.898.196-1.797.27-2.7l.12-1.46.09-1.121-2.402-.957 1.922-.48.032-2.313q.004-.637.015-1.297c.004-1.258.004-1.258-.527-2.633h-.961l.48-.96.961.48.48-5.758-2.402-.961a163 163 0 0 1-3.171-1.668l-.895-.48-2.8-1.512-1.91-1.028Q27.287 9.9 24.96 8.641l-.48 5.28H24zm0 0" fill="#5d72f4"/><path d="M24 0c4.531 2.223 8.988 4.523 13.383 7a107 107 0 0 0 5.816 3.078l-.48 1.442q-.153 1.125-.27 2.25-.058.578-.12 1.175l-.09.895h-.958v7.68l-.96-.48.48-6.24-2.403-.96a163 163 0 0 1-3.171-1.668l-.895-.48-2.8-1.512-1.91-1.028Q27.287 9.9 24.96 8.641l-.48 5.28H24zm0 0" fill="#6575f0"/><path d="M43.2 10.559c1.737.648 3.343 1.25 4.8 2.402.29 1.504.29 1.504.273 3.379v1.035l-.039 3.39-.011 2.352a653 653 0 0 1-.059 6.184l-.047 6.312A2183 2183 0 0 1 48 48h-2.879q-.039-5.366-.055-10.738-.006-1.824-.02-3.653-.014-2.625-.019-5.25-.01-.813-.015-1.648v-1.543l-.008-1.355c.129-1.372.55-2.383 1.074-3.653a44 44 0 0 0 0-3.36h-.957q-.09-.384-.18-.78L43.68 12l-.48-1.441m0 0" fill="#7964f5"/><path d="M24 0l3.629 1.8 1.125.555a107 107 0 0 1 6.285 3.407c-1.445.445-1.855.5-3.36 0l.481 1.437-1.922 1.922 1.442.957c.332 1.024.332 1.024.48 1.922-2.648-.746-4.828-1.996-7.2-3.36l-.48 5.282H24zm0 0" fill="#8377ed"/><path d="M42.238 10.559h.961c.762 2.668 1.106 4.906.961 7.68l-.48.48a131 131 0 0 0-.153 4.457l-.03 1.355q-.047 2.152-.087 4.297-.032 1.459-.062 2.91-.077 3.572-.149 7.14l-.96.481V25.441l-.477 5.278c-2.403-.48-2.403-.48-3.364-1.438h1.922q.019-1.157.032-2.312.004-.637.015-1.297c.004-1.258.004-1.258-.527-2.633h-.961l.48-.96.961.48v.96h.961l-.48-8.16h.96l.477-4.8m0 0" fill="#4f78f7"/><path d="M37.922 7.68c1.816.695 3.543 1.511 5.277 2.398l-.48 1.442q-.153 1.125-.27 2.25-.058.578-.12 1.175l-.09.895h-.958v7.68a110 110 0 0 1-.96-.48l.48-6.24-2.403-.96-3.359-1.918c1.598-.535 2.7-.406 4.32 0l.961-1.442-.96-.48c-.481-1.441-.481-1.441-.481-2.398a44 44 0 0 0-.957-1.922m0 0" fill="#638ff0"/><path d="M42.238 23.52h.48c.075 4.804-.05 9.597-.206 14.402l-.059 1.836c-.098 2.781-.207 5.5-.691 8.242H40.8l-.48-4.32h.96v-6.72h-1.44l.48-.96c.11-.898.196-1.797.27-2.7l.12-1.46q.046-.549.09-1.121h.962l-.02-1.086-.012-1.434a164 164 0 0 1-.015-1.418c.039-1.176.187-2.14.523-3.261m0 0" fill="#5885e8"/><path d="M38.398 8.16c1.457 2.074 1.442 3.25 1.442 5.762-1.89.629-2.942.113-4.8-.48l-.481-1.922h.96l-.96-2.88 3.84-.48m0 0" fill="#5575f3"/><path d="M41.281 16.8l.957.481c.614 3.04.39 5.82.032 8.88l-.145 1.335a452 452 0 0 1-.363 3.223c-2.282-.36-2.282-.36-3.364-1.438h1.922q.019-1.157.032-2.312.004-.637.015-1.297c.004-1.258.004-1.258-.527-2.633h-.961l.48-.96.961.48v.96h.961zm0 0" fill="#446ab7"/><path d="M37.922 9.602l1.918.476v1.442l.48 1.921c-.84.54-.84.54-1.922.957-1.078-.418-1.078-.418-1.918-.957l.48-.96h.962zm0 0" fill="#4979f7"/><path d="M34.559 9.121c.96 1.438.96 1.438.78 2.969l-.3 1.351-2.879-.96L34.078 12l-.476-2.398.957-.48m0 0" fill="#6c82f3"/><path d="M37.922 7.68l4.316 1.922-.957.957c-.93-.028-.93-.028-1.922-.48-.84-1.227-.84-1.227-1.437-2.4m.957 2.879h.96l-.48.96-.48-.96m0 0" fill="#7093ed"/><path d="M43.2 10.559c1.66.601 2.952 1.285 4.32 2.402l-3.36.48-.96-2.882m0 0" fill="#828be6"/><path d="M29.281 9.121c1.168.36 1.168.36 2.399.957.39 1.024.39 1.024.48 1.922l-2.879-.96zm0 0" fill="#8a8fea"/><path d="M30.238 8.16q1.208.206 2.403.48.234.708.48 1.438c-1.922 0-1.922 0-2.762-.719l-.597-.718.476-.48m0 0" fill="#676df9"/></svg>